<svg width="123" height="23" viewBox="0 0 123 23" fill="none" xmlns="http://www.w3.org/2000/svg">
<g filter="url(#filter0_d_1_2897)">
<path d="M10.0709 0.123291L9.22456 3.37832H6.02342L5.37951 5.78417H11.0367L11.6806 3.37832H11.6622L12.5085 0.123291H10.0709Z" fill="white"/>
<path d="M20.2818 3.37832L19.5919 5.78417L13.9347 5.78415L14.5786 3.37832H14.5797L15.4524 0.123291H17.8901L17.0438 3.37832H20.2818Z" fill="white"/>
<path d="M10.2802 8.74137L10.3011 8.66181H4.59791L4 11.1148H7.18459L6.34531 14.3698H8.82896L10.2802 8.74137Z" fill="white"/>
<path d="M18.2117 11.1148L18.8556 8.66181H13.1984L12.5545 11.1148H12.5663L11.727 14.3698H14.1647L15.004 11.1148H18.2117Z" fill="white"/>
<path fill-rule="evenodd" clip-rule="evenodd" d="M40.3075 11.2553C39.7135 11.2553 39.1672 11.1526 38.6685 10.9473C38.1699 10.7346 37.7372 10.4523 37.3705 10.1003C37.0112 9.74093 36.7289 9.32293 36.5235 8.84626C36.3255 8.36226 36.2265 7.84526 36.2265 7.29526V7.27326C36.2265 6.72326 36.3292 6.20993 36.5345 5.73326C36.7399 5.24926 37.0222 4.82759 37.3815 4.46826C37.7482 4.10159 38.1809 3.81559 38.6795 3.61026C39.1855 3.39759 39.7355 3.29126 40.3295 3.29126C40.9235 3.29126 41.4699 3.39759 41.9685 3.61026C42.4672 3.81559 42.8962 4.09793 43.2555 4.45726C43.6222 4.80926 43.9045 5.22726 44.1025 5.71126C44.3079 6.18793 44.4105 6.70126 44.4105 7.25126V7.27326C44.4105 7.82326 44.3079 8.34026 44.1025 8.82426C43.8972 9.30093 43.6112 9.72259 43.2445 10.0893C42.8852 10.4486 42.4525 10.7346 41.9465 10.9473C41.4479 11.1526 40.9015 11.2553 40.3075 11.2553ZM40.3295 9.69326C40.6669 9.69326 40.9785 9.63093 41.2645 9.50626C41.5505 9.38159 41.7925 9.20926 41.9905 8.98926C42.1959 8.76926 42.3535 8.51626 42.4635 8.23026C42.5809 7.93693 42.6395 7.62526 42.6395 7.29526V7.27326C42.6395 6.94326 42.5809 6.63159 42.4635 6.33826C42.3535 6.04493 42.1922 5.78826 41.9795 5.56826C41.7742 5.34826 41.5285 5.17593 41.2425 5.05126C40.9565 4.91926 40.6449 4.85326 40.3075 4.85326C39.9629 4.85326 39.6475 4.91559 39.3615 5.04026C39.0829 5.16493 38.8409 5.33726 38.6355 5.55726C38.4375 5.77726 38.2799 6.03393 38.1625 6.32726C38.0525 6.61326 37.9975 6.92126 37.9975 7.25126V7.27326C37.9975 7.60326 38.0525 7.91493 38.1625 8.20826C38.2799 8.50159 38.4412 8.75826 38.6465 8.97826C38.8592 9.19826 39.1049 9.37426 39.3835 9.50626C39.6695 9.63093 39.9849 9.69326 40.3295 9.69326Z" fill="white"/>
<path d="M26.694 3.42326H25V11.1233H26.694V3.42326Z" fill="white"/>
<path fill-rule="evenodd" clip-rule="evenodd" d="M32.1383 3.42326H28.6183V11.1233H30.3123V8.65926H31.6433L33.2933 11.1233H35.2733L33.3923 8.37326C33.8836 8.18993 34.2796 7.90393 34.5803 7.51526C34.8883 7.11926 35.0423 6.60959 35.0423 5.98626V5.96426C35.0423 5.23093 34.8223 4.64426 34.3823 4.20426C33.8616 3.68359 33.1136 3.42326 32.1383 3.42326ZM32.9853 6.86626C32.7653 7.06426 32.4463 7.16326 32.0283 7.16326H30.3123V4.95226H31.9953C32.4133 4.95226 32.7396 5.04393 32.9743 5.22726C33.209 5.41059 33.3263 5.68559 33.3263 6.05226V6.07426C33.3263 6.40426 33.2126 6.66826 32.9853 6.86626Z" fill="white"/>
<path d="M47.4752 3.42326H45.9132V11.1233H47.5852V6.22826L51.3142 11.1233H52.7552V3.42326H51.0832V8.16426L47.4752 3.42326Z" fill="white"/>
<path d="M55.4397 5.34826C55.4397 5.17226 55.4763 5.00726 55.5497 4.85326C55.6303 4.69926 55.7403 4.56726 55.8797 4.45726C56.0263 4.34726 56.1987 4.25926 56.3967 4.19326C56.602 4.12726 56.8293 4.09426 57.0787 4.09426C57.4747 4.09426 57.8523 4.16026 58.2117 4.29226C58.5783 4.42426 58.9413 4.63693 59.3007 4.93026L59.8067 4.25926C59.4107 3.94393 59 3.70926 58.5747 3.55526C58.1567 3.39393 57.6653 3.31326 57.1007 3.31326C56.734 3.31326 56.3967 3.36826 56.0887 3.47826C55.7807 3.58093 55.513 3.72759 55.2857 3.91826C55.0583 4.10159 54.8823 4.32159 54.7577 4.57826C54.633 4.83493 54.5707 5.11726 54.5707 5.42526C54.5707 5.74793 54.622 6.02659 54.7247 6.26126C54.8273 6.49593 54.985 6.70126 55.1977 6.87726C55.4103 7.05326 55.678 7.20359 56.0007 7.32826C56.3307 7.45293 56.7157 7.56293 57.1557 7.65826C57.559 7.74626 57.889 7.83793 58.1457 7.93326C58.4097 8.02859 58.615 8.13493 58.7617 8.25226C58.9083 8.36959 59.011 8.50159 59.0697 8.64826C59.1283 8.78759 59.1577 8.94893 59.1577 9.13226C59.1577 9.52826 59 9.84726 58.6847 10.0893C58.3767 10.3313 57.9623 10.4523 57.4417 10.4523C56.9063 10.4523 56.4333 10.3643 56.0227 10.1883C55.612 10.0049 55.205 9.72993 54.8017 9.36326L54.2627 10.0013C54.7247 10.4193 55.2087 10.7309 55.7147 10.9363C56.228 11.1343 56.7927 11.2333 57.4087 11.2333C57.79 11.2333 58.142 11.1819 58.4647 11.0793C58.7873 10.9766 59.0623 10.8299 59.2897 10.6393C59.5243 10.4486 59.7077 10.2176 59.8397 9.94626C59.9717 9.67493 60.0377 9.37426 60.0377 9.04426C60.0377 8.45026 59.8323 7.98459 59.4217 7.64726C59.0183 7.30993 58.3877 7.04593 57.5297 6.85526C57.1043 6.76726 56.756 6.67559 56.4847 6.58026C56.2133 6.47759 56.0007 6.36759 55.8467 6.25026C55.6927 6.12559 55.5863 5.98993 55.5277 5.84326C55.469 5.69659 55.4397 5.53159 55.4397 5.34826Z" fill="white"/>
<path fill-rule="evenodd" clip-rule="evenodd" d="M69.0318 5.74426C69.2225 6.22093 69.3178 6.72693 69.3178 7.26226C69.3178 7.79759 69.2225 8.30726 69.0318 8.79126C68.8411 9.26793 68.5735 9.68959 68.2288 10.0563C67.8841 10.4229 67.4698 10.7163 66.9858 10.9363C66.5018 11.1489 65.9665 11.2553 65.3798 11.2553C64.7931 11.2553 64.2578 11.1489 63.7738 10.9363C63.2971 10.7236 62.8865 10.4376 62.5418 10.0783C62.1971 9.71159 61.9295 9.28993 61.7388 8.81326C61.5555 8.32926 61.4638 7.81959 61.4638 7.28426C61.4638 6.74893 61.5591 6.24293 61.7498 5.76626C61.9405 5.28226 62.2081 4.85693 62.5528 4.49026C62.8975 4.12359 63.3118 3.83393 63.7958 3.62126C64.2798 3.40126 64.8151 3.29126 65.4018 3.29126C65.9885 3.29126 66.5201 3.39759 66.9968 3.61026C67.4808 3.82293 67.8951 4.11259 68.2398 4.47926C68.5845 4.83859 68.8485 5.26026 69.0318 5.74426ZM68.1848 8.52726C68.3388 8.13859 68.4158 7.72426 68.4158 7.28426C68.4158 6.84426 68.3388 6.42993 68.1848 6.04126C68.0381 5.65259 67.8291 5.31526 67.5578 5.02926C67.2865 4.74326 66.9638 4.51593 66.5898 4.34726C66.2231 4.17859 65.8198 4.09426 65.3798 4.09426C64.9398 4.09426 64.5328 4.17859 64.1588 4.34726C63.7921 4.50859 63.4768 4.73226 63.2128 5.01826C62.9488 5.30426 62.7398 5.64159 62.5858 6.03026C62.4391 6.41159 62.3658 6.82226 62.3658 7.26226C62.3658 7.70226 62.4391 8.11659 62.5858 8.50526C62.7398 8.89393 62.9525 9.23126 63.2238 9.51726C63.4951 9.80326 63.8141 10.0306 64.1808 10.1993C64.5548 10.3679 64.9618 10.4523 65.4018 10.4523C65.8418 10.4523 66.2451 10.3716 66.6118 10.2103C66.9858 10.0416 67.3048 9.81426 67.5688 9.52826C67.8328 9.24226 68.0381 8.90859 68.1848 8.52726Z" fill="white"/>
<path d="M76.6835 3.42326H71.1505V11.1233H72.0195V7.76826H76.1885V6.97626H72.0195V4.22626H76.6835V3.42326Z" fill="white"/>
<path d="M83.8692 4.22626H81.2842V11.1233H80.4043V4.22626H77.8192V3.42326H83.8692V4.22626Z" fill="white"/>
<path d="M88.0541 9.83626L85.8541 3.42326H84.9081L87.6581 11.1783H88.3841L90.5071 4.93026L92.6191 11.1783H93.3561L96.1061 3.42326H95.1931L92.9931 9.83626L90.8811 3.40126H90.1661L88.0541 9.83626Z" fill="white"/>
<path fill-rule="evenodd" clip-rule="evenodd" d="M99.5444 3.36826H100.358L103.867 11.1233H102.932L102.03 9.08826H97.8394L96.9264 11.1233H96.0354L99.5444 3.36826ZM98.1804 8.30726H101.689L99.9404 4.38026L98.1804 8.30726Z" fill="white"/>
<path fill-rule="evenodd" clip-rule="evenodd" d="M111.755 11.1233L109.39 7.97726C109.691 7.92593 109.969 7.83793 110.226 7.71326C110.483 7.58859 110.703 7.43459 110.886 7.25126C111.077 7.06059 111.223 6.84059 111.326 6.59126C111.429 6.33459 111.48 6.04493 111.48 5.72226C111.48 5.37759 111.414 5.06593 111.282 4.78726C111.15 4.50126 110.963 4.25926 110.721 4.06126C110.479 3.85593 110.186 3.69826 109.841 3.58826C109.504 3.47826 109.122 3.42326 108.697 3.42326H105.386V11.1233H106.255V8.13126H108.455L110.688 11.1233H111.755ZM110.6 5.75526C110.6 6.00459 110.549 6.22826 110.446 6.42626C110.351 6.62426 110.215 6.79293 110.039 6.93226C109.863 7.06426 109.654 7.16693 109.412 7.24026C109.17 7.31359 108.906 7.35026 108.62 7.35026H106.255V4.22626H108.631C109.254 4.22626 109.738 4.36193 110.083 4.63326C110.428 4.89726 110.6 5.27126 110.6 5.75526Z" fill="white"/>
<path d="M113.335 3.42326H118.901V4.21526H114.204V6.84426H118.406V7.63626H114.204V10.3313H118.956V11.1233H113.335V3.42326Z" fill="white"/>
</g>
<defs>
<filter id="filter0_d_1_2897" x="0" y="0.123291" width="122.956" height="22.2466" filterUnits="userSpaceOnUse" color-interpolation-filters="sRGB">
<feFlood flood-opacity="0" result="BackgroundImageFix"/>
<feColorMatrix in="SourceAlpha" type="matrix" values="0 0 0 0 0 0 0 0 0 0 0 0 0 0 0 0 0 0 127 0" result="hardAlpha"/>
<feOffset dy="4"/>
<feGaussianBlur stdDeviation="2"/>
<feComposite in2="hardAlpha" operator="out"/>
<feColorMatrix type="matrix" values="0 0 0 0 0 0 0 0 0 0 0 0 0 0 0 0 0 0 0.25 0"/>
<feBlend mode="normal" in2="BackgroundImageFix" result="effect1_dropShadow_1_2897"/>
<feBlend mode="normal" in="SourceGraphic" in2="effect1_dropShadow_1_2897" result="shape"/>
</filter>
</defs>
</svg>
